<?xml version="1.0" encoding="UTF-8"?>
<svg xmlns="http://www.w3.org/2000/svg" xmlns:xlink="http://www.w3.org/1999/xlink" width="17px" height="17px" viewBox="0 0 17 17" version="1.1">
<defs>
<radialGradient id="radial0" gradientUnits="userSpaceOnUse" cx="0" cy="0" fx="0" fy="0" r="1" gradientTransform="matrix(8.553639,-9.985353,9.985353,8.553639,3.283765,15.067458)">
<stop offset="0" style="stop-color:rgb(39.215686%,12.54902%,100%);stop-opacity:1;"/>
<stop offset="1" style="stop-color:rgb(39.215686%,12.54902%,100%);stop-opacity:0;"/>
</radialGradient>
<radialGradient id="radial1" gradientUnits="userSpaceOnUse" cx="0" cy="0" fx="0" fy="0" r="1" gradientTransform="matrix(8.567186,12.101226,-12.101226,8.567186,4.500499,1.932596)">
<stop offset="0" style="stop-color:rgb(0%,76.862745%,80%);stop-opacity:1;"/>
<stop offset="1" style="stop-color:rgb(0%,76.862745%,80%);stop-opacity:0;"/>
</radialGradient>
<radialGradient id="radial2" gradientUnits="userSpaceOnUse" cx="0" cy="0" fx="0" fy="0" r="1" gradientTransform="matrix(9.153158,-9.215789,4.238467,4.209656,3.283684,15.067368)">
<stop offset="0" style="stop-color:rgb(39.215686%,12.54902%,100%);stop-opacity:1;"/>
<stop offset="1" style="stop-color:rgb(39.215686%,12.54902%,100%);stop-opacity:0;"/>
</radialGradient>
<radialGradient id="radial3" gradientUnits="userSpaceOnUse" cx="0" cy="0" fx="0" fy="0" r="1" gradientTransform="matrix(5.332623,12.275789,-20.564721,8.93333,6.952105,2.290526)">
<stop offset="0" style="stop-color:rgb(0%,76.862745%,80%);stop-opacity:0.729412;"/>
<stop offset="0" style="stop-color:rgb(0%,76.862745%,80%);stop-opacity:1;"/>
<stop offset="1" style="stop-color:rgb(0%,76.862745%,80%);stop-opacity:0;"/>
</radialGradient>
</defs>
<g id="surface1">
<path style=" stroke:none;fill-rule:evenodd;fill:rgb(49.019608%,16.470588%,90.588235%);fill-opacity:1;" d="M 17 8.5 C 17 13.195312 13.195312 17 8.5 17 C 3.804688 17 0 13.195312 0 8.5 C 0 3.804688 3.804688 0 8.5 0 C 13.195312 0 17 3.804688 17 8.5 Z M 17 8.5 "/>
<path style=" stroke:none;fill-rule:evenodd;fill:url(#radial0);" d="M 17 8.5 C 17 13.195312 13.195312 17 8.5 17 C 3.804688 17 0 13.195312 0 8.5 C 0 3.804688 3.804688 0 8.5 0 C 13.195312 0 17 3.804688 17 8.5 Z M 17 8.5 "/>
<path style=" stroke:none;fill-rule:evenodd;fill:url(#radial1);" d="M 17 8.5 C 17 13.195312 13.195312 17 8.5 17 C 3.804688 17 0 13.195312 0 8.5 C 0 3.804688 3.804688 0 8.5 0 C 13.195312 0 17 3.804688 17 8.5 Z M 17 8.5 "/>
<path style=" stroke:none;fill-rule:evenodd;fill:url(#radial2);" d="M 17 8.5 C 17 13.195312 13.195312 17 8.5 17 C 3.804688 17 0 13.195312 0 8.5 C 0 3.804688 3.804688 0 8.5 0 C 13.195312 0 17 3.804688 17 8.5 Z M 17 8.5 "/>
<path style=" stroke:none;fill-rule:evenodd;fill:url(#radial3);" d="M 17 8.5 C 17 13.195312 13.195312 17 8.5 17 C 3.804688 17 0 13.195312 0 8.5 C 0 3.804688 3.804688 0 8.5 0 C 13.195312 0 17 3.804688 17 8.5 Z M 17 8.5 "/>
<path style=" stroke:none;fill-rule:nonzero;fill:rgb(100%,100%,100%);fill-opacity:1;" d="M 7.820312 9.492188 C 7.367188 9.335938 6.945312 9.179688 6.570312 9.007812 C 6.195312 8.851562 5.867188 8.664062 5.601562 8.429688 C 5.335938 8.195312 5.117188 7.929688 4.976562 7.601562 C 4.820312 7.289062 4.742188 6.898438 4.742188 6.445312 C 4.742188 5.742188 4.960938 5.132812 5.398438 4.648438 C 5.835938 4.164062 6.460938 3.835938 7.273438 3.664062 L 7.273438 2.398438 C 7.367188 2.382812 7.507812 2.351562 7.710938 2.320312 C 7.914062 2.289062 8.117188 2.273438 8.320312 2.273438 C 8.726562 2.273438 9.039062 2.335938 9.273438 2.476562 C 9.507812 2.617188 9.617188 2.929688 9.617188 3.382812 L 9.617188 3.585938 C 10.257812 3.664062 10.789062 3.835938 11.179688 4.085938 C 11.570312 4.335938 11.757812 4.679688 11.757812 5.117188 C 11.757812 5.382812 11.695312 5.617188 11.570312 5.804688 C 11.445312 6.007812 11.289062 6.164062 11.117188 6.304688 C 10.882812 6.164062 10.585938 6.023438 10.195312 5.914062 C 9.804688 5.820312 9.382812 5.757812 8.929688 5.757812 C 8.460938 5.757812 8.117188 5.820312 7.898438 5.945312 C 7.679688 6.085938 7.570312 6.242188 7.570312 6.445312 C 7.570312 6.601562 7.632812 6.726562 7.773438 6.820312 C 7.914062 6.929688 8.117188 7.023438 8.382812 7.101562 L 9.210938 7.367188 C 10.195312 7.679688 10.945312 8.070312 11.476562 8.554688 C 11.992188 9.039062 12.257812 9.710938 12.257812 10.539062 C 12.257812 11.242188 12.039062 11.851562 11.585938 12.335938 C 11.132812 12.835938 10.476562 13.179688 9.617188 13.351562 L 9.617188 14.601562 C 9.523438 14.617188 9.382812 14.648438 9.179688 14.679688 C 8.976562 14.710938 8.773438 14.726562 8.570312 14.726562 C 8.164062 14.726562 7.851562 14.664062 7.617188 14.523438 C 7.382812 14.382812 7.273438 14.070312 7.273438 13.617188 L 7.273438 13.460938 C 6.898438 13.414062 6.554688 13.351562 6.257812 13.257812 C 5.945312 13.164062 5.679688 13.039062 5.460938 12.898438 C 5.226562 12.757812 5.054688 12.585938 4.929688 12.382812 C 4.804688 12.179688 4.742188 11.960938 4.742188 11.710938 C 4.742188 11.414062 4.835938 11.148438 5.007812 10.929688 C 5.179688 10.726562 5.382812 10.554688 5.585938 10.445312 C 5.882812 10.679688 6.226562 10.867188 6.664062 11.039062 C 7.085938 11.210938 7.539062 11.289062 8.039062 11.289062 C 8.554688 11.289062 8.914062 11.210938 9.117188 11.054688 C 9.320312 10.898438 9.429688 10.710938 9.429688 10.507812 C 9.429688 10.304688 9.351562 10.132812 9.179688 10.023438 C 9.007812 9.914062 8.773438 9.820312 8.476562 9.710938 Z M 7.820312 9.492188 "/>
</g>
</svg>
